<svg width="453" height="182" viewBox="0 0 453 182" fill="none" xmlns="http://www.w3.org/2000/svg">
<g clip-path="url(#clip0_135_8)">
<path d="M65 102.4L65.4 120.6C65.4 128.2 64.1333 134.667 61.6 140C59.0667 145.333 54.9333 150.067 49.2 154.2C43.6 158.333 35.8667 162.267 26 166L17.8 151.6V149.2C26.0667 144.933 31.8667 140.733 35.2 136.6C38.6667 132.333 40.4 126.867 40.4 120.2V105L39.2 36L18 36.6L16 34.6L17.4 16H66.4L65 102.4Z" fill="white"/>
<path d="M231.592 144.8H207.592L205.592 105.8L200.992 56.2H198.992L170.192 131.2H149.192L122.992 56.2H121.192L116.192 103.2L113.392 144.8H90.5922L103.592 16H134.792L139.992 35L160.392 96H162.192L183.592 35L189.392 16H219.992L231.592 144.8Z" fill="white"/>
</g>
<g clip-path="url(#clip1_135_8)">
<path d="M46 102.4L46.4 120.6C46.4 128.2 45.1333 134.667 42.6 140C40.0667 145.333 35.9333 150.067 30.2 154.2C24.6 158.333 16.8667 162.267 7 166L-1.2 151.6V149.2C7.06667 144.933 12.8667 140.733 16.2 136.6C19.6667 132.333 21.4 126.867 21.4 120.2V105L20.2 36L-1 36.6L-3 34.6L-1.6 16H47.4L46 102.4Z" fill="white"/>
<path d="M212.592 144.8H188.592L186.592 105.8L181.992 56.2H179.992L151.192 131.2H130.192L103.992 56.2H102.192L97.1922 103.2L94.3922 144.8H71.5922L84.5922 16H115.792L120.992 35L141.392 96H143.192L164.592 35L170.392 16H200.992L212.592 144.8Z" fill="white"/>
</g>
<path d="M249.18 17.4L248.62 24.47L240.15 24.05H237.35L237 47.43L237.42 61.71H227.9L228.39 48.27L228.04 24.05H225.24L216.63 24.47L216 23.7L216.63 16.63H248.62L249.18 17.4Z" fill="white"/>
<path d="M283.692 53.87L284.252 54.64L283.622 61.71H255.342L255.832 48.27L255.342 16.63H283.902L284.462 17.4L283.762 24.47L272.982 24.12L264.862 24.19L264.652 35.04L272.422 35.18L279.772 34.97L280.332 35.67L279.702 42.74L271.722 42.53L264.512 42.6L264.442 47.43L264.652 54.22L272.562 54.29L283.692 53.87Z" fill="white"/>
<path d="M308.128 16.07C312.515 16.07 316.458 16.98 319.958 18.8L318.278 26.71L317.508 27.06C316.108 26.08 314.568 25.31 312.888 24.75C311.208 24.19 309.482 23.91 307.708 23.91C300.288 23.91 296.578 28.7867 296.578 38.54C296.578 43.8133 297.535 47.78 299.448 50.44C301.408 53.0533 304.255 54.36 307.988 54.36C309.715 54.36 311.488 54.1033 313.308 53.59C315.175 53.03 316.855 52.2833 318.348 51.35L319.188 51.84L318.418 59.89C314.872 61.5233 311.138 62.34 307.218 62.34C300.498 62.34 295.365 60.38 291.818 56.46C288.318 52.54 286.568 46.9167 286.568 39.59C286.568 32.1233 288.435 26.3367 292.168 22.23C295.948 18.1233 301.268 16.07 308.128 16.07Z" fill="white"/>
<path d="M363.47 47.78L363.82 61.71H353.6L335.19 31.19H334.63L334.56 46.17L334.84 61.71H326.23L326.72 48.41L326.3 16.63H336.45L354.86 47.15H355.49L355.28 17.05L364.03 16.49L363.47 47.78Z" fill="white"/>
<path d="M392.137 16C398.484 16 403.36 17.9367 406.767 21.81C410.22 25.6367 411.947 31.0967 411.947 38.19C411.947 45.9367 410.08 51.91 406.347 56.11C402.614 60.31 397.34 62.41 390.527 62.41C384.227 62.41 379.35 60.45 375.897 56.53C372.49 52.5633 370.787 46.9633 370.787 39.73C370.787 32.1233 372.63 26.2667 376.317 22.16C380.05 18.0533 385.324 16 392.137 16ZM391.297 23.63C387.564 23.63 384.857 24.7967 383.177 27.13C381.497 29.4633 380.657 33.2667 380.657 38.54C380.657 44.56 381.474 48.8533 383.107 51.42C384.787 53.9867 387.54 55.27 391.367 55.27C395.1 55.27 397.807 54.1033 399.487 51.77C401.167 49.39 402.007 45.5167 402.007 40.15C402.007 34.2233 401.167 30 399.487 27.48C397.854 24.9133 395.124 23.63 391.297 23.63Z" fill="white"/>
<path d="M238.54 100.35C245.073 100.35 250.09 102.17 253.59 105.81C257.09 109.45 258.84 114.677 258.84 121.49C258.84 129.47 256.88 135.583 252.96 139.83C249.04 144.077 243.44 146.2 236.16 146.2C233.967 146.2 231.33 146.153 228.25 146.06C225.217 145.967 222.603 145.85 220.41 145.71L220.9 132.27L220.41 100.63L238.54 100.35ZM237.84 138.85C245.26 138.85 248.97 133.787 248.97 123.66C248.97 118.153 248.06 114.163 246.24 111.69C244.467 109.17 241.667 107.91 237.84 107.91C235.367 107.91 232.73 108.027 229.93 108.26L229.51 131.43L229.72 138.36C232.987 138.687 235.693 138.85 237.84 138.85Z" fill="white"/>
<path d="M294.287 137.87L294.847 138.64L294.217 145.71H265.937L266.427 132.27L265.937 100.63H294.497L295.057 101.4L294.357 108.47L283.577 108.12L275.457 108.19L275.247 119.04L283.017 119.18L290.367 118.97L290.927 119.67L290.297 126.74L282.317 126.53L275.107 126.6L275.037 131.43L275.247 138.22L283.157 138.29L294.287 137.87Z" fill="white"/>
<path d="M316.043 100.07C319.869 100.07 323.673 100.84 327.453 102.38L325.913 110.57L324.513 111.13C322.926 110.01 321.269 109.123 319.543 108.47C317.863 107.817 316.323 107.49 314.923 107.49C313.056 107.49 311.563 108.003 310.443 109.03C309.323 110.01 308.763 111.153 308.763 112.46C308.763 113.813 309.369 114.957 310.583 115.89C311.843 116.823 313.803 117.92 316.463 119.18C319.029 120.347 321.106 121.443 322.693 122.47C324.326 123.45 325.703 124.757 326.823 126.39C327.989 128.023 328.573 130.03 328.573 132.41C328.573 134.977 327.873 137.333 326.473 139.48C325.073 141.58 323.089 143.26 320.523 144.52C317.956 145.733 314.993 146.34 311.633 146.34C307.199 146.34 302.743 145.383 298.263 143.47L299.593 134.65L300.643 134.09C302.509 135.723 304.539 136.983 306.733 137.87C308.973 138.71 310.956 139.13 312.683 139.13C314.736 139.13 316.323 138.64 317.443 137.66C318.609 136.633 319.193 135.42 319.193 134.02C319.193 132.527 318.563 131.313 317.303 130.38C316.089 129.447 314.106 128.327 311.353 127.02C308.833 125.9 306.779 124.85 305.193 123.87C303.606 122.89 302.253 121.583 301.133 119.95C300.013 118.317 299.453 116.333 299.453 114C299.453 111.387 300.153 109.03 301.553 106.93C302.953 104.783 304.913 103.103 307.433 101.89C309.953 100.677 312.823 100.07 316.043 100.07Z" fill="white"/>
<path d="M345.516 131.43L345.936 145.71H336.416L336.906 132.27L336.416 100.63H346.076L345.516 131.43Z" fill="white"/>
<path d="M376.465 100.07C381.365 100.07 385.775 100.98 389.695 102.8L387.665 111.34L386.755 111.48C384.468 110.173 382.415 109.24 380.595 108.68C378.822 108.073 376.908 107.77 374.855 107.77C370.702 107.77 367.668 109.007 365.755 111.48C363.842 113.953 362.885 118.013 362.885 123.66C362.885 127.393 363.282 130.357 364.075 132.55C364.915 134.743 366.198 136.353 367.925 137.38C369.652 138.36 371.938 138.85 374.785 138.85C375.765 138.85 376.675 138.78 377.515 138.64C378.402 138.5 379.475 138.243 380.735 137.87L380.875 134.02L380.735 126.88L389.485 126.25L389.275 132.55L389.485 143.54C383.885 145.407 378.728 146.34 374.015 146.34C367.015 146.34 361.742 144.427 358.195 140.6C354.695 136.773 352.945 131.29 352.945 124.15C352.945 116.357 354.975 110.407 359.035 106.3C363.142 102.147 368.952 100.07 376.465 100.07Z" fill="white"/>
<path d="M435.521 131.78L435.871 145.71H425.651L407.241 115.19H406.681L406.611 130.17L406.891 145.71H398.281L398.771 132.41L398.351 100.63H408.501L426.911 131.15H427.541L427.331 101.05L436.081 100.49L435.521 131.78Z" fill="white"/>
<defs>
<clipPath id="clip0_135_8">
<rect width="54" height="150" fill="white" transform="translate(16 16)"/>
</clipPath>
<clipPath id="clip1_135_8">
<rect width="147" height="150" fill="white" transform="translate(69 16)"/>
</clipPath>
</defs>
</svg>
